# xmcd CD database file
#
# Track frame offsets:
#	150
#	20715
#	38118
#	56358
#	67749
#	90967
#	104748
#	123158
#	139615
#	158028
#	185377
#
# Disc length: 2764 seconds
#
# Revision: 0
# Processed by: cddbd v1.5.2PL0 Copyright (c) Steve Scherf et al.
# Submitted via: CDex 1.72
#
DISCID=850aca0b
DTITLE=George Nussbaumer and Band - Five Mess More CD 02
DYEAR=2015
DGENRE=Blues
TTITLE0=George Nussbaumer and Band - Down To The River
TTITLE1=George Nussbaumer and Band - I Wanna Dance With Somebody
TTITLE2=George Nussbaumer and Band - Wounded Heart
TTITLE3=George Nussbaumer and Band - Peace Of Mind
TTITLE4=George Nussbaumer and Band - Feels Like Home
TTITLE5=George Nussbaumer and Band - Nobody Wins
TTITLE6=George Nussbaumer and Band - Baltimore
TTITLE7=George Nussbaumer and Band - When All Is Said And Done
TTITLE8=George Nussbaumer and Band - The Messenger
TTITLE9=George Nussbaumer and Band - Down To The River (Bonus)
TTITLE10=George Nussbaumer and Band - Audiokommentar Five Mess More
EXTD=YEAR: 2015
EXTT0=
EXTT1=
EXTT2=
EXTT3=
EXTT4=
EXTT5=
EXTT6=
EXTT7=
EXTT8=
EXTT9=
EXTT10=
PLAYORDER=
